<?xml version="1.0" encoding="UTF-8" standalone="no"?>
<svg
   xmlns:dc="http://purl.org/dc/elements/1.1/"
   xmlns:cc="http://creativecommons.org/ns#"
   xmlns:rdf="http://www.w3.org/1999/02/22-rdf-syntax-ns#"
   xmlns:svg="http://www.w3.org/2000/svg"
   xmlns="http://www.w3.org/2000/svg"
   xmlns:xlink="http://www.w3.org/1999/xlink"
   xmlns:sodipodi="http://sodipodi.sourceforge.net/DTD/sodipodi-0.dtd"
   xmlns:inkscape="http://www.inkscape.org/namespaces/inkscape"
   sodipodi:docname="cyberwehr.svg"
   inkscape:version="1.0 (4035a4fb49, 2020-05-01)"
   id="svg8"
   version="1.1"
   viewBox="0 0 90 60"
   height="60mm"
   width="90mm">
  <defs
     id="defs2">
    <rect
       id="rect1644"
       height="108.35834"
       width="366.59241"
       y="240.63542"
       x="36.194024" />
    <rect
       id="rect1638"
       height="54.00165"
       width="318.76728"
       y="233.54001"
       x="39.070123" />
  </defs>
  <sodipodi:namedview
     inkscape:window-maximized="1"
     inkscape:window-y="37"
     inkscape:window-x="0"
     inkscape:window-height="1015"
     inkscape:window-width="1920"
     showgrid="false"
     inkscape:document-rotation="0"
     inkscape:current-layer="g1520"
     inkscape:document-units="mm"
     inkscape:cy="153.05228"
     inkscape:cx="70.710678"
     inkscape:zoom="1.979899"
     inkscape:pageshadow="2"
     inkscape:pageopacity="0.0"
     borderopacity="1.0"
     bordercolor="#666666"
     pagecolor="#ffffff"
     id="base" />
  <metadata
     id="metadata5">
    <rdf:RDF>
      <cc:Work
         rdf:about="">
        <dc:format>image/svg+xml</dc:format>
        <dc:type
           rdf:resource="http://purl.org/dc/dcmitype/StillImage" />
        <dc:title></dc:title>
      </cc:Work>
    </rdf:RDF>
  </metadata>
  <g
     id="layer1"
     inkscape:groupmode="layer"
     inkscape:label="Ebene 1">
    <rect
       y="0"
       x="0"
       height="60"
       width="90"
       id="rect833"
       style="fill:#000000;stroke-width:2.12146" />
    <g
       transform="matrix(0.36494252,0,0,0.36494252,-63.209942,-17.118635)"
       id="g1520">
      <g
         id="g1708">
        <rect
           style="fill:#013eb1;fill-opacity:1;stroke:none;stroke-width:10.2885;stroke-miterlimit:4;stroke-dasharray:none;stroke-opacity:1"
           id="rect1648"
           width="13.700788"
           height="164.40945"
           x="173.2052"
           y="46.907757" />
        <rect
           y="46.907757"
           x="406.11859"
           height="164.40945"
           width="13.700788"
           id="rect1648-6"
           style="fill:#013eb1;fill-opacity:1;stroke:none;stroke-width:10.2885;stroke-miterlimit:4;stroke-dasharray:none;stroke-opacity:1" />
        <rect
           y="46.907757"
           x="173.2052"
           height="13.700788"
           width="246.61418"
           id="rect1648-2"
           style="fill:#013eb1;fill-opacity:1;stroke:none;stroke-width:12.6008;stroke-miterlimit:4;stroke-dasharray:none;stroke-opacity:1" />
        <rect
           style="fill:#013eb1;fill-opacity:1;stroke:none;stroke-width:12.6008;stroke-miterlimit:4;stroke-dasharray:none;stroke-opacity:1"
           id="rect1648-2-5"
           width="246.61418"
           height="13.700788"
           x="173.2052"
           y="197.61642" />
      </g>
      <g
         transform="translate(15.22568,11.943012)"
         id="g1632">
        <use
           xlink:href="#path2800"
           height="290"
           width="290"
           y="0"
           x="0"
           id="use2822"
           transform="rotate(180,281.28458,93.857533)" />
        <use
           style="fill:#6acbe5;fill-opacity:1;stroke:none"
           xlink:href="#path2800"
           height="290"
           width="290"
           y="0"
           x="0"
           id="use2818"
           transform="matrix(-1,0,0,1,562.56942,-1.899561e-8)" />
        <path
           style="fill:#adb6bc;fill-opacity:1;stroke:none;stroke-width:0.254329;stroke-miterlimit:4;stroke-dasharray:none"
           id="path2796"
           d="m 315.53859,107.49938 c -6.20296,-2.34443 -16.67553,-6.00454 -27.9367,-7.32989 1.32942,11.25354 4.99131,21.72027 7.33573,27.9194 h -27.30175 c 2.34417,-6.19913 6.00834,-16.66586 7.33574,-27.9194 -11.26245,1.3256 -21.73401,4.98571 -27.93696,7.32989 V 80.216443 c 6.20295,2.342389 16.67451,6.002501 27.93696,7.328868 -1.3274,-11.256335 -4.99157,-21.720263 -7.33574,-27.919148 h 27.30175 c -2.34442,6.198885 -6.00631,16.662813 -7.33573,27.919148 11.26142,-1.326367 21.734,-4.986479 27.9367,-7.328868 v 27.282937" />
        <path
           style="fill:#003cb1;fill-opacity:1;stroke-width:0.254386"
           id="path2800"
           d="m 265.44789,78.030504 c -1.67564,-7.114678 -4.24418,-13.655712 -5.87658,-18.404341 h 4.248 c 2.80944,7.153851 5.84987,17.307936 6.85698,23.628927 -6.32582,-1.007115 -16.48499,-4.045508 -23.64164,-6.855965 v -4.245201 c 4.74939,1.633417 11.29577,4.198139 18.41324,5.87658" />
        <use
           xlink:href="#path2800"
           height="290"
           width="290"
           y="0"
           x="0"
           id="use2820"
           transform="matrix(1,0,0,-1,-1.3845902e-6,187.71429)" />
      </g>
      <g
         style="font-style:normal;font-variant:normal;font-weight:normal;font-stretch:normal;font-size:29px;line-height:1.25;font-family:'Lapidary roman';-inkscape-font-specification:'Lapidary roman, ';letter-spacing:0px;word-spacing:0px;white-space:pre;shape-inside:url(#rect1638);fill:#013eb1;fill-opacity:1;stroke:none"
         id="text1636"
         transform="translate(184.9703,-95.961439)"
         aria-label="Cyberwehr">
        <path
           id="path1728"
           style="font-style:normal;font-variant:normal;font-weight:bold;font-stretch:normal;font-family:Frutiger;-inkscape-font-specification:'Frutiger Bold';fill:#013eb1;fill-opacity:1"
           d="m 55.368652,255.75274 0.141602,3.4126 q -2.407227,0.6372 -4.403809,0.6372 -2.265625,0 -4.191406,-0.59472 -1.925781,-0.59473 -3.398437,-1.8125 -1.458497,-1.23194 -2.251465,-3.04444 -0.778809,-1.8125 -0.778809,-4.17724 0,-2.36475 0.708008,-4.23389 0.708008,-1.86914 2.053223,-3.15772 1.359375,-1.30273 3.256836,-1.9541 1.89746,-0.65136 4.248046,-0.65136 2.095704,0 4.672852,0.83544 l -0.311523,3.31348 q -1.911622,-1.04785 -4.148926,-1.04785 -1.897461,0 -3.341797,0.82129 -1.444336,0.80713 -2.223145,2.26562 -0.764648,1.4585 -0.764648,3.35596 0,1.96826 0.807129,3.54004 0.821289,1.57178 2.322265,2.43555 1.500977,0.86377 3.511719,0.86377 1.911621,0 4.092285,-0.80713 z" />
        <path
           id="path1730"
           style="font-style:normal;font-variant:normal;font-weight:bold;font-stretch:normal;font-family:Frutiger;-inkscape-font-specification:'Frutiger Bold';fill:#013eb1;fill-opacity:1"
           d="m 57.365234,265.33916 0.254883,-2.80371 q 0.821289,0.31153 1.571778,0.31153 1.132812,0 1.770019,-0.65137 0.637207,-0.65137 1.104492,-1.8125 l -5.664062,-15.10889 h 4.120605 l 2.959473,8.76514 q 0.09912,0.31152 0.254883,0.80713 0.155761,0.48144 0.354004,1.13281 0.212402,-0.76465 0.382324,-1.37354 0.184082,-0.62304 0.311523,-1.00537 l 2.789551,-8.32617 h 3.766602 l -5.706543,15.37793 q -0.651368,1.68506 -1.316895,2.71875 -0.651367,1.04785 -1.727539,1.69922 -1.062012,0.65137 -2.619629,0.65137 -1.047851,0 -2.605469,-0.38233 z" />
        <path
           id="path1732"
           style="font-style:normal;font-variant:normal;font-weight:bold;font-stretch:normal;font-family:Frutiger;-inkscape-font-specification:'Frutiger Bold';fill:#013eb1;fill-opacity:1"
           d="m 76.977051,259.66094 h -3.483399 v -20.88623 h 3.709961 v 6.38623 q 0,1.54346 -0.141601,2.66211 0.736328,-1.41602 1.8833,-2.0957 1.146973,-0.67969 2.789551,-0.67969 1.500977,0 2.591309,0.58057 1.104492,0.5664 1.79834,1.57177 0.693847,1.00537 1.033691,2.27979 0.339844,1.26025 0.339844,2.70459 0,1.5293 -0.311524,2.90283 -0.311523,1.35938 -0.991211,2.43555 -0.679687,1.06201 -1.84082,1.71338 -1.161133,0.65136 -2.77539,0.65136 -3.186036,0 -4.51709,-2.49218 z m 6.669433,-7.16504 q 0,-1.72754 -0.750488,-3.03027 -0.736328,-1.3169 -2.322266,-1.3169 -1.670898,0 -2.506347,1.35938 -0.835449,1.35937 -0.835449,3.10107 0,1.7417 0.821289,3.0586 0.821289,1.30273 2.463867,1.30273 1.076172,0 1.770019,-0.69385 0.708008,-0.69384 1.033692,-1.72754 0.325683,-1.04785 0.325683,-2.05322 z" />
        <path
           id="path1734"
           style="font-style:normal;font-variant:normal;font-weight:bold;font-stretch:normal;font-family:Frutiger;-inkscape-font-specification:'Frutiger Bold';fill:#013eb1;fill-opacity:1"
           d="m 102.02637,255.8377 0.0566,3.21435 q -2.279787,0.99121 -4.927737,0.99121 -1.770019,0 -3.157714,-0.4956 -1.373536,-0.50977 -2.350586,-1.48682 -0.977051,-0.99121 -1.486817,-2.3789 -0.509765,-1.40186 -0.509765,-3.18604 0,-1.64258 0.467285,-3.01611 0.481445,-1.3877 1.373535,-2.39307 0.89209,-1.01953 2.194824,-1.58594 1.316895,-0.5664 2.973633,-0.5664 1.614258,0 2.846191,0.58056 1.231931,0.58057 1.996581,1.6001 0.77881,1.01953 1.16113,2.36475 0.38233,1.33105 0.38233,2.93115 0,0.2832 -0.0142,0.42481 -0.0142,0.1416 -0.0283,0.354 -0.0142,0.2124 -0.0425,0.4956 h -9.657229 q 0.141601,1.69922 1.316894,2.64795 1.189454,0.94873 2.945313,0.94873 1.982422,0 4.460452,-1.44433 z m -2.520511,-4.72949 q -0.02832,-0.96289 -0.354004,-1.77002 -0.311523,-0.80713 -0.97705,-1.30274 -0.651368,-0.4956 -1.628418,-0.4956 -1.005371,0 -1.727539,0.4956 -0.708008,0.48145 -1.104493,1.28858 -0.382324,0.80713 -0.467285,1.78418 z" />
        <path
           id="path1736"
           style="font-style:normal;font-variant:normal;font-weight:bold;font-stretch:normal;font-family:Frutiger;-inkscape-font-specification:'Frutiger Bold';fill:#013eb1;fill-opacity:1"
           d="m 109.82861,259.66094 h -3.70996 v -10.03955 q -0.0708,-3.58252 -0.11328,-4.31885 h 3.37012 l 0.085,3.625 q 0.48144,-1.69922 1.4585,-2.71875 0.99121,-1.01953 2.57714,-1.01953 0.48145,0 1.09034,0.1416 v 3.4834 q -0.73633,-0.19824 -1.30274,-0.19824 -1.31689,0 -2.0957,0.69385 -0.77881,0.69384 -1.07617,1.78418 -0.28321,1.07617 -0.28321,2.36474 v 0.28321 z" />
        <path
           id="path1738"
           style="font-style:normal;font-variant:normal;font-weight:bold;font-stretch:normal;font-family:Frutiger;-inkscape-font-specification:'Frutiger Bold';fill:#013eb1;fill-opacity:1"
           d="m 139.47998,245.30254 -4.44629,14.3584 h -4.31885 L 128.9165,254.096 q -0.60888,-1.98242 -0.92041,-3.17188 -0.31152,-1.20361 -0.4956,-2.66211 -0.16992,0.9629 -0.35401,1.75586 -0.18408,0.77881 -0.45312,1.8125 -0.26904,1.0337 -0.49561,1.93995 l -1.79834,5.89062 h -4.27636 l -4.8711,-14.3584 h 3.92237 l 1.68506,5.16846 q 1.16113,3.59668 1.55761,6.28711 0.22656,-1.5293 0.52393,-2.83203 0.31152,-1.30274 0.75049,-2.81787 l 1.71338,-5.80567 h 4.29052 l 2.03906,6.47119 q 0.86377,2.63379 1.18946,4.92774 0.32568,-2.37891 1.09033,-4.98438 l 1.86914,-6.41455 z" />
        <path
           id="path1740"
           style="font-style:normal;font-variant:normal;font-weight:bold;font-stretch:normal;font-family:Frutiger;-inkscape-font-specification:'Frutiger Bold';fill:#013eb1;fill-opacity:1"
           d="m 153.18701,255.8377 0.0566,3.21435 q -2.27978,0.99121 -4.92773,0.99121 -1.77002,0 -3.15772,-0.4956 -1.37353,-0.50977 -2.35058,-1.48682 -0.97705,-0.99121 -1.48682,-2.3789 -0.50976,-1.40186 -0.50976,-3.18604 0,-1.64258 0.46728,-3.01611 0.48145,-1.3877 1.37354,-2.39307 0.89209,-1.01953 2.19482,-1.58594 1.31689,-0.5664 2.97363,-0.5664 1.61426,0 2.84619,0.58056 1.23194,0.58057 1.99659,1.6001 0.7788,1.01953 1.16113,2.36475 0.38232,1.33105 0.38232,2.93115 0,0.2832 -0.0142,0.42481 -0.0142,0.1416 -0.0283,0.354 -0.0142,0.2124 -0.0425,0.4956 h -9.65722 q 0.1416,1.69922 1.31689,2.64795 1.18945,0.94873 2.94531,0.94873 1.98242,0 4.46045,-1.44433 z m -2.52051,-4.72949 q -0.0283,-0.96289 -0.354,-1.77002 -0.31152,-0.80713 -0.97705,-1.30274 -0.65137,-0.4956 -1.62842,-0.4956 -1.00537,0 -1.72754,0.4956 -0.70801,0.48145 -1.10449,1.28858 -0.38232,0.80713 -0.46729,1.78418 z" />
        <path
           id="path1742"
           style="font-style:normal;font-variant:normal;font-weight:bold;font-stretch:normal;font-family:Frutiger;-inkscape-font-specification:'Frutiger Bold';fill:#013eb1;fill-opacity:1"
           d="m 170.36328,259.66094 h -3.70996 v -6.9668 q 0,-2.06738 -0.45312,-3.29931 -0.43897,-1.2461 -2.09571,-1.2461 -1.78418,0 -2.50635,1.47266 -0.72216,1.4585 -0.72216,3.42676 v 0.72217 5.89062 h -3.70996 v -20.88623 h 3.70996 v 8.56689 q 0.80713,-1.16113 1.93994,-1.72753 1.13281,-0.56641 2.59131,-0.56641 1.51513,0 2.49218,0.4956 0.99121,0.48145 1.51514,1.3169 0.53809,0.83545 0.73633,1.9541 0.2124,1.10449 0.2124,2.60547 z" />
        <path
           id="path1744"
           style="font-style:normal;font-variant:normal;font-weight:bold;font-stretch:normal;font-family:Frutiger;-inkscape-font-specification:'Frutiger Bold';fill:#013eb1;fill-opacity:1"
           d="m 177.83984,259.66094 h -3.70996 v -10.03955 q -0.0708,-3.58252 -0.11328,-4.31885 h 3.37012 l 0.085,3.625 q 0.48144,-1.69922 1.4585,-2.71875 0.99121,-1.01953 2.57714,-1.01953 0.48145,0 1.09034,0.1416 v 3.4834 q -0.73633,-0.19824 -1.30274,-0.19824 -1.31689,0 -2.0957,0.69385 -0.77881,0.69384 -1.07617,1.78418 -0.28321,1.07617 -0.28321,2.36474 v 0.28321 z" />
      </g>
      <g
         style="font-style:normal;font-variant:normal;font-weight:normal;font-stretch:normal;font-size:29px;line-height:1.25;font-family:'Lapidary roman';-inkscape-font-specification:'Lapidary roman, ';letter-spacing:0px;word-spacing:0px;white-space:pre;shape-inside:url(#rect1644);fill:#000000;fill-opacity:1;stroke:none"
         id="text1642"
         transform="matrix(1.0506864,0,0,1.0506883,162.95547,-90.658797)"
         aria-label="Wir. Dienen. Neuland.">
        <path
           id="path1747"
           style="font-style:normal;font-variant:normal;font-weight:bold;font-stretch:normal;font-size:18.4006px;font-family:Frutiger;-inkscape-font-specification:'Frutiger Bold';fill:#013eb1;fill-opacity:1"
           d="m 50.487966,266.75664 h -3.144633 l -1.105115,-4.61812 q -0.09883,-0.4672 -0.296494,-1.2848 -0.188678,-0.81761 -0.377356,-1.68912 -0.188678,-0.87151 -0.287509,-1.35669 -0.08985,-0.49415 -0.197663,-1.30277 h -0.07188 q -0.125785,1.07816 -0.368372,2.25515 -0.233601,1.16801 -0.512126,2.27312 l -1.293792,5.72323 h -3.180572 l -3.297374,-12.27305 h 2.560631 l 1.176991,4.68999 q 0.862529,3.05479 1.159023,5.35487 h 0.07188 q 0.143755,-0.87152 0.377356,-2.12039 0.242586,-1.25785 0.458218,-2.37195 l 1.248869,-5.55252 h 3.306358 l 1.221915,5.02243 q 0.718773,2.929 1.006283,5.02243 h 0.07188 q 0.125785,-0.83558 0.323448,-1.85983 0.197663,-1.02425 0.458218,-2.14734 0.26954,-1.12308 0.458218,-1.82388 l 1.042222,-4.21381 h 2.434845 z" />
        <path
           id="path1749"
           style="font-style:normal;font-variant:normal;font-weight:bold;font-stretch:normal;font-size:18.4006px;font-family:Frutiger;-inkscape-font-specification:'Frutiger Bold';fill:#013eb1;fill-opacity:1"
           d="m 57.4421,266.75664 h -2.353983 v -9.11045 H 57.4421 Z m 0.03594,-10.76363 h -2.425861 v -2.2282 h 2.425861 z" />
        <path
           id="path1751"
           style="font-style:normal;font-variant:normal;font-weight:bold;font-stretch:normal;font-size:18.4006px;font-family:Frutiger;-inkscape-font-specification:'Frutiger Bold';fill:#013eb1;fill-opacity:1"
           d="m 62.257881,266.75664 h -2.353983 v -6.37013 q -0.04492,-2.27312 -0.07188,-2.74032 h 2.138351 l 0.05391,2.30008 q 0.305479,-1.07816 0.925421,-1.72506 0.628927,-0.6469 1.63521,-0.6469 0.305478,0 0.691819,0.0898 v 2.21023 q -0.467203,-0.12579 -0.82659,-0.12579 -0.835574,0 -1.32973,0.44025 -0.494157,0.44025 -0.682835,1.13207 -0.179694,0.68283 -0.179694,1.50044 v 0.17969 z" />
        <path
           id="path1753"
           style="font-style:normal;font-variant:normal;font-weight:bold;font-stretch:normal;font-size:18.4006px;font-family:Frutiger;-inkscape-font-specification:'Frutiger Bold';fill:#013eb1;fill-opacity:1"
           d="m 69.256937,264.34875 v 2.40789 h -2.506722 v -2.40789 z" />
        <path
           id="path1755"
           style="font-style:normal;font-variant:normal;font-weight:bold;font-stretch:normal;font-size:18.4006px;font-family:Frutiger;-inkscape-font-specification:'Frutiger Bold';fill:#013eb1;fill-opacity:1"
           d="m 77.03766,266.75664 v -12.27305 h 2.794232 q 1.141053,0 2.03952,0.0719 0.898467,0.0719 1.796933,0.33244 0.898467,0.26055 1.626225,0.77268 0.610958,0.41329 1.042222,0.97933 0.431264,0.56603 0.67385,1.18597 0.251571,0.61096 0.368371,1.3477 0.125786,0.72776 0.125786,1.47349 0,1.54536 -0.53908,2.84814 -0.530096,1.30278 -1.689118,2.13835 -0.610957,0.44923 -1.383639,0.7008 -0.772681,0.25158 -1.590286,0.34142 -0.817605,0.0809 -1.716072,0.0809 z m 2.479769,-1.89576 q 0.206647,0 0.341417,0.009 0.13477,0 0.287509,0.009 1.087145,0 1.949673,-0.26056 0.862529,-0.26954 1.473486,-0.79963 0.619942,-0.53908 0.952375,-1.3477 0.332433,-0.81761 0.332433,-1.91374 0,-1.09613 -0.476188,-2.06647 -0.476187,-0.97035 -1.365669,-1.48247 -0.368372,-0.22462 -0.781667,-0.34142 -0.40431,-0.12578 -0.862528,-0.17969 -0.449233,-0.0539 -1.006283,-0.0719 -0.548064,-0.018 -0.844558,-0.018 z" />
        <path
           id="path1757"
           style="font-style:normal;font-variant:normal;font-weight:bold;font-stretch:normal;font-size:18.4006px;font-family:Frutiger;-inkscape-font-specification:'Frutiger Bold';fill:#013eb1;fill-opacity:1"
           d="m 91.93424,266.75664 h -2.353983 v -9.11045 h 2.353983 z m 0.03594,-10.76363 h -2.42586 v -2.2282 h 2.42586 z" />
        <path
           id="path1759"
           style="font-style:normal;font-variant:normal;font-weight:bold;font-stretch:normal;font-size:18.4006px;font-family:Frutiger;-inkscape-font-specification:'Frutiger Bold';fill:#013eb1;fill-opacity:1"
           d="m 101.64667,264.33078 0.0359,2.03952 q -1.44653,0.62893 -3.12666,0.62893 -1.123084,0 -2.003581,-0.31446 -0.871513,-0.32345 -1.491455,-0.94339 -0.619942,-0.62893 -0.943391,-1.50943 -0.323448,-0.88948 -0.323448,-2.02155 0,-1.04222 0.296494,-1.91373 0.305479,-0.8805 0.871513,-1.51841 0.566034,-0.6469 1.392624,-1.00628 0.835574,-0.35939 1.88678,-0.35939 1.024252,0 1.805914,0.36837 0.78167,0.36837 1.26684,1.01527 0.49416,0.64689 0.73675,1.50044 0.24258,0.84456 0.24258,1.85982 0,0.1797 -0.009,0.26954 -0.009,0.0898 -0.018,0.22462 -0.009,0.13477 -0.027,0.31446 h -6.12754 q 0.08985,1.07816 0.835574,1.68014 0.754712,0.60197 1.868811,0.60197 1.257855,0 2.830175,-0.91644 z m -1.59928,-3.00088 q -0.018,-0.61095 -0.224612,-1.12308 -0.197663,-0.51213 -0.619942,-0.82659 -0.413295,-0.31446 -1.033237,-0.31446 -0.637912,0 -1.09613,0.31446 -0.449233,0.30548 -0.700804,0.81761 -0.242586,0.51212 -0.296494,1.13206 z" />
        <path
           id="path1761"
           style="font-style:normal;font-variant:normal;font-weight:bold;font-stretch:normal;font-size:18.4006px;font-family:Frutiger;-inkscape-font-specification:'Frutiger Bold';fill:#013eb1;fill-opacity:1"
           d="m 106.39955,257.64619 0.0539,1.45552 q 1.09613,-1.59927 3.07276,-1.59927 1.83287,0 2.47078,1.08714 0.63791,1.07816 0.63791,3.03682 v 5.13024 h -2.35398 v -4.58218 q 0,-1.21293 -0.31446,-1.96764 -0.30548,-0.75471 -1.33872,-0.75471 -1.10511,0 -1.55435,0.88948 -0.44923,0.8805 -0.44923,2.09343 v 4.32162 h -2.36297 v -5.79511 q 0,-1.9317 -0.0898,-3.31534 z" />
        <path
           id="path1763"
           style="font-style:normal;font-variant:normal;font-weight:bold;font-stretch:normal;font-size:18.4006px;font-family:Frutiger;-inkscape-font-specification:'Frutiger Bold';fill:#013eb1;fill-opacity:1"
           d="m 122.25749,264.33078 0.0359,2.03952 q -1.44653,0.62893 -3.12666,0.62893 -1.12309,0 -2.00358,-0.31446 -0.87152,-0.32345 -1.49146,-0.94339 -0.61994,-0.62893 -0.94339,-1.50943 -0.32345,-0.88948 -0.32345,-2.02155 0,-1.04222 0.2965,-1.91373 0.30548,-0.8805 0.87151,-1.51841 0.56603,-0.6469 1.39262,-1.00628 0.83558,-0.35939 1.88678,-0.35939 1.02426,0 1.80592,0.36837 0.78167,0.36837 1.26684,1.01527 0.49416,0.64689 0.73674,1.50044 0.24259,0.84456 0.24259,1.85982 0,0.1797 -0.009,0.26954 -0.009,0.0898 -0.018,0.22462 -0.009,0.13477 -0.027,0.31446 h -6.12754 q 0.0898,1.07816 0.83557,1.68014 0.75471,0.60197 1.86881,0.60197 1.25786,0 2.83017,-0.91644 z m -1.59927,-3.00088 q -0.018,-0.61095 -0.22461,-1.12308 -0.19767,-0.51213 -0.61995,-0.82659 -0.41329,-0.31446 -1.03323,-0.31446 -0.63791,0 -1.09613,0.31446 -0.44924,0.30548 -0.70081,0.81761 -0.24258,0.51212 -0.29649,1.13206 z" />
        <path
           id="path1765"
           style="font-style:normal;font-variant:normal;font-weight:bold;font-stretch:normal;font-size:18.4006px;font-family:Frutiger;-inkscape-font-specification:'Frutiger Bold';fill:#013eb1;fill-opacity:1"
           d="m 127.01039,257.64619 0.0539,1.45552 q 1.09613,-1.59927 3.07276,-1.59927 1.83287,0 2.47078,1.08714 0.63792,1.07816 0.63792,3.03682 v 5.13024 h -2.35399 v -4.58218 q 0,-1.21293 -0.31446,-1.96764 -0.30548,-0.75471 -1.33872,-0.75471 -1.10511,0 -1.55434,0.88948 -0.44924,0.8805 -0.44924,2.09343 v 4.32162 h -2.36297 v -5.79511 q 0,-1.9317 -0.0898,-3.31534 z" />
        <path
           id="path1767"
           style="font-style:normal;font-variant:normal;font-weight:bold;font-stretch:normal;font-size:18.4006px;font-family:Frutiger;-inkscape-font-specification:'Frutiger Bold';fill:#013eb1;fill-opacity:1"
           d="m 138.07051,264.34875 v 2.40789 h -2.50672 v -2.40789 z" />
        <path
           id="path1769"
           style="font-style:normal;font-variant:normal;font-weight:bold;font-stretch:normal;font-size:18.4006px;font-family:Frutiger;-inkscape-font-specification:'Frutiger Bold';fill:#013eb1;fill-opacity:1"
           d="m 155.95,266.75664 h -2.98291 l -4.02513,-7.41235 q -0.38634,-0.7008 -1.01527,-2.17429 0.27853,1.91374 0.27853,3.16261 v 6.42403 h -2.35399 v -12.27305 h 2.92002 l 4.12396,7.43032 q 0.21563,0.39532 0.27853,0.56603 0.0719,0.17071 0.26055,0.6469 0.18868,0.47619 0.38634,0.96136 -0.22461,-1.28481 -0.22461,-3.00088 v -6.60373 H 155.95 Z" />
        <path
           id="path1771"
           style="font-style:normal;font-variant:normal;font-weight:bold;font-stretch:normal;font-size:18.4006px;font-family:Frutiger;-inkscape-font-specification:'Frutiger Bold';fill:#013eb1;fill-opacity:1"
           d="m 165.94095,264.33078 0.0359,2.03952 q -1.44653,0.62893 -3.12667,0.62893 -1.12308,0 -2.00358,-0.31446 -0.87151,-0.32345 -1.49145,-0.94339 -0.61994,-0.62893 -0.94339,-1.50943 -0.32345,-0.88948 -0.32345,-2.02155 0,-1.04222 0.29649,-1.91373 0.30548,-0.8805 0.87152,-1.51841 0.56603,-0.6469 1.39262,-1.00628 0.83557,-0.35939 1.88678,-0.35939 1.02425,0 1.80592,0.36837 0.78167,0.36837 1.26684,1.01527 0.49415,0.64689 0.73674,1.50044 0.24259,0.84456 0.24259,1.85982 0,0.1797 -0.009,0.26954 -0.009,0.0898 -0.018,0.22462 -0.009,0.13477 -0.0269,0.31446 h -6.12755 q 0.0899,1.07816 0.83558,1.68014 0.75471,0.60197 1.86881,0.60197 1.25785,0 2.83017,-0.91644 z m -1.59927,-3.00088 q -0.018,-0.61095 -0.22462,-1.12308 -0.19766,-0.51213 -0.61994,-0.82659 -0.41329,-0.31446 -1.03324,-0.31446 -0.63791,0 -1.09613,0.31446 -0.44923,0.30548 -0.7008,0.81761 -0.24259,0.51212 -0.29649,1.13206 z" />
        <path
           id="path1773"
           style="font-style:normal;font-variant:normal;font-weight:bold;font-stretch:normal;font-size:18.4006px;font-family:Frutiger;-inkscape-font-specification:'Frutiger Bold';fill:#013eb1;fill-opacity:1"
           d="m 176.65068,257.64619 v 5.56151 q 0.018,0.38634 0.0359,1.19496 0.027,0.80862 0.0449,1.29379 0.018,0.48518 0.0539,1.06019 h -2.22819 l -0.0719,-1.4016 q -0.31446,0.49415 -0.7637,0.83557 -0.44025,0.34142 -0.9973,0.5301 -0.55704,0.17969 -1.11409,0.17969 -1.26684,0 -1.97663,-0.52111 -0.70979,-0.52111 -0.97933,-1.42856 -0.26056,-0.90746 -0.26056,-2.16531 v -5.13923 h 2.35399 v 4.38452 q 0,0.85354 0.0809,1.44653 0.0899,0.584 0.45822,1.02425 0.36837,0.43127 1.1141,0.43127 1.06917,0 1.48247,-0.89847 0.41329,-0.90745 0.41329,-2.12038 v -4.26772 z" />
        <path
           id="path1775"
           style="font-style:normal;font-variant:normal;font-weight:bold;font-stretch:normal;font-size:18.4006px;font-family:Frutiger;-inkscape-font-specification:'Frutiger Bold';fill:#013eb1;fill-opacity:1"
           d="m 181.49341,266.75664 h -2.35399 v -13.25238 h 2.35399 z" />
        <path
           id="path1777"
           style="font-style:normal;font-variant:normal;font-weight:bold;font-stretch:normal;font-size:18.4006px;font-family:Frutiger;-inkscape-font-specification:'Frutiger Bold';fill:#013eb1;fill-opacity:1"
           d="m 191.48436,266.75664 h -2.10241 l -0.0359,-1.36567 q -0.42228,0.72776 -1.18598,1.12309 -0.75471,0.38634 -1.64419,0.38634 -0.90745,0 -1.62623,-0.31446 -0.70979,-0.31447 -1.12308,-0.95238 -0.41329,-0.6469 -0.41329,-1.56333 0,-1.70709 1.33871,-2.33602 1.33872,-0.62892 3.26144,-0.62892 0.27852,0 0.35938,0.009 0.0809,0 0.35939,0.018 0.27852,0.009 0.56603,0.027 0,-1.01527 -0.49415,-1.50943 -0.49416,-0.49416 -1.5274,-0.49416 -1.56333,0 -2.82118,0.9973 l -0.0719,-2.0485 q 1.4645,-0.61994 3.17159,-0.61994 0.63791,0 1.26684,0.12578 0.62892,0.12579 1.15902,0.42228 0.53908,0.28751 0.88948,0.77268 0.35939,0.48517 0.4672,1.1141 0.1168,0.61994 0.1168,1.48247 0,0.88948 0,1.78795 0.009,0.89847 0.018,1.64419 0.018,0.73675 0.0719,1.92272 z m -2.21023,-4.14193 q -0.0899,-0.018 -0.27852,-0.018 h -0.28751 q -0.77268,0 -1.41958,0.0899 -0.63791,0.0809 -1.12308,0.43126 -0.47619,0.34142 -0.47619,1.00629 0,0.53908 0.42228,0.86252 0.43126,0.31447 0.9973,0.31447 1.06917,0 1.61724,-0.79065 0.54806,-0.79065 0.54806,-1.89577 z" />
        <path
           id="path1779"
           style="font-style:normal;font-variant:normal;font-weight:bold;font-stretch:normal;font-size:18.4006px;font-family:Frutiger;-inkscape-font-specification:'Frutiger Bold';fill:#013eb1;fill-opacity:1"
           d="m 196.01264,257.64619 0.0539,1.45552 q 1.09613,-1.59927 3.07276,-1.59927 1.83287,0 2.47078,1.08714 0.63792,1.07816 0.63792,3.03682 v 5.13024 h -2.35399 v -4.58218 q 0,-1.21293 -0.31446,-1.96764 -0.30548,-0.75471 -1.33872,-0.75471 -1.10511,0 -1.55434,0.88948 -0.44924,0.8805 -0.44924,2.09343 v 4.32162 h -2.36296 v -5.79511 q 0,-1.9317 -0.0899,-3.31534 z" />
        <path
           id="path1781"
           style="font-style:normal;font-variant:normal;font-weight:bold;font-stretch:normal;font-size:18.4006px;font-family:Frutiger;-inkscape-font-specification:'Frutiger Bold';fill:#013eb1;fill-opacity:1"
           d="m 212.95773,266.75664 h -2.2282 l -0.0359,-1.54536 q -0.40431,0.81761 -1.15902,1.25785 -0.74573,0.43127 -1.68912,0.43127 -0.98831,0 -1.73404,-0.38634 -0.73674,-0.39533 -1.19496,-1.06019 -0.45822,-0.66487 -0.68283,-1.50943 -0.21564,-0.84456 -0.21564,-1.76998 0,-1.22191 0.40431,-2.29109 0.40431,-1.07816 1.24887,-1.73404 0.85355,-0.66486 2.12038,-0.66486 0.95238,0 1.66217,0.42228 0.70979,0.42228 1.16801,1.24886 -0.0899,-0.66486 -0.0899,-1.61724 v -4.03411 h 2.35398 v 10.60191 q 0.018,0.88049 0.027,1.54536 0.018,0.66487 0.0449,1.10511 z m -2.38992,-4.49233 q 0,-0.70979 -0.22462,-1.33872 -0.22462,-0.63791 -0.70979,-1.0512 -0.47619,-0.42228 -1.18597,-0.42228 -1.0602,0 -1.5274,0.8176 -0.45822,0.80862 -0.45822,1.95866 0,1.07816 0.51213,1.94967 0.51213,0.87152 1.50942,0.87152 0.67385,0 1.15004,-0.40431 0.48517,-0.4133 0.70979,-1.04222 0.22462,-0.63792 0.22462,-1.33872 z" />
        <path
           id="path1783"
           style="font-style:normal;font-variant:normal;font-weight:bold;font-stretch:normal;font-size:18.4006px;font-family:Frutiger;-inkscape-font-specification:'Frutiger Bold';fill:#013eb1;fill-opacity:1"
           d="m 217.87233,264.34875 v 2.40789 h -2.50672 v -2.40789 z" />
      </g>
    </g>
  </g>
</svg>
